<svg xmlns="http://www.w3.org/2000/svg" viewBox="0 0 128 128" role="img" aria-label="Ninja icon">
  <defs>
    <linearGradient id="edge" x1="0%" x2="100%" y1="0%" y2="100%">
      <stop offset="0%" stop-color="#53E1FF"/>
      <stop offset="100%" stop-color="#1489FF"/>
    </linearGradient>
    <linearGradient id="maskGrad" x1="0%" x2="0%" y1="0%" y2="100%">
      <stop offset="0%" stop-color="#1A2436"/>
      <stop offset="100%" stop-color="#05070D"/>
    </linearGradient>
    <radialGradient id="eyeGlow" cx="50%" cy="50%" r="50%">
      <stop offset="0%" stop-color="#53E1FF" stop-opacity="0.8"/>
      <stop offset="100%" stop-color="#1489FF" stop-opacity="0"/>
    </radialGradient>
    <filter id="neon" x="-20%" y="-20%" width="140%" height="140%">
      <feGaussianBlur stdDeviation="3" result="blur"/>
      <feMerge>
        <feMergeNode in="blur"/>
        <feMergeNode in="SourceGraphic"/>
      </feMerge>
    </filter>
  </defs>

  <rect x="8" y="8" width="112" height="112" rx="28" fill="#05070D" stroke="url(#edge)" stroke-width="4"/>

  <!-- Ninja hood background -->
  <path d="M64 22 C34 22, 22 45, 22 70 C22 100, 38 108, 64 108 C90 108, 106 100, 106 70 C106 45, 94 22, 64 22 Z" fill="#0C1220" stroke="#141C2C" stroke-width="2"/>

  <!-- Face opening mask -->
  <path d="M30 52 C45 44, 83 44, 98 52 C104 55, 106 63, 100 68 C85 78, 43 78, 28 68 C22 63, 24 55, 30 52 Z" fill="#05070D" stroke="#1594FF" stroke-width="1.5" stroke-opacity="0.6"/>

  <!-- Lower mask fabric overlay -->
  <path d="M28 68 C43 78, 85 78, 100 68 C106 74, 102 96, 64 104 C26 96, 22 74, 28 68 Z" fill="url(#maskGrad)"/>

  <!-- Glowing Eyes -->
  <g filter="url(#neon)">
    <!-- Left Eye -->
    <path d="M42 58 L52 61 L44 63 Z" fill="#F4F8FF"/>
    <!-- Right Eye -->
    <path d="M86 58 L76 61 L84 63 Z" fill="#F4F8FF"/>
  </g>

  <!-- Headband trails -->
  <path d="M24 60 C14 55, 6 65, 14 75 C18 80, 24 78, 26 70" fill="none" stroke="#1594FF" stroke-width="2" stroke-linecap="round"/>
  <path d="M22 64 C12 60, 10 75, 18 85" fill="none" stroke="#1594FF" stroke-width="1.5" stroke-linecap="round" stroke-opacity="0.6"/>

</svg>
